<svg width="62" height="62" viewBox="0 0 62 62" fill="none" xmlns="http://www.w3.org/2000/svg">
<path d="M0 8.99999C0 4.02943 4.02944 0 9 0H22.32V21.68C22.32 31.6211 14.2611 39.68 4.32 39.68H0V8.99999Z" fill="#CFFE25"/>
<path d="M0 42.1602H21.68C31.6211 42.1602 39.68 50.219 39.68 60.1602V62.0002H8.99999C4.02943 62.0002 0 57.9707 0 53.0002V42.1602Z" fill="#CFFE25"/>
<path d="M42.16 38.3203C42.16 29.4837 49.3234 22.3203 58.16 22.3203H62V53.0003C62 57.9709 57.9705 62.0003 53 62.0003H42.16V38.3203Z" fill="#CFFE25"/>
<path d="M24.8 0H53C57.9705 0 62 4.02944 62 9V19.84H42.8C32.8589 19.84 24.8 11.7811 24.8 1.84V0Z" fill="#CFFE25"/>
</svg>
